# xmcd
#
# Track frame offsets:
# 150
# 14770
# 27253
# 44685
# 59886
# 77093
# 93169
# 107087
# 120974
# 133081
# 150767
# 166453
# 180059
# 194013
# 212900
#
# Disc length: 3043 seconds
#
#
# Revision: 0
# Processed by: cddbd v1.5.1PL2 Copyright (c) Steve Scherf et al.
# Submitted via: FreeRIP 2.944 
#
DISCID=c80be10f
DTITLE=Victor e Léo - Vida Boa
DYEAR=1900
DGENRE=country
TTITLE0=Vida Boa
TTITLE1=Vou pra Roça
TTITLE2=o Granfino e o Caipira
TTITLE3=Amigo Apaixonado
TTITLE4=Fada
TTITLE5=Mari Mariana
TTITLE6=O Cuidador do Fogo
TTITLE7=Arapuca
TTITLE8=é a Vida
TTITLE9=Deus e eu no sertão
TTITLE10=Paraiso
TTITLE11=Adeus Saudade
TTITLE12=Lem Casa
TTITLE13=Meu eu em voce
TTITLE14=Tanta Solidão
EXTD=
EXTT0=
EXTT1=
EXTT2=
EXTT3=
EXTT4=
EXTT5=
EXTT6=
EXTT7=
EXTT8=
EXTT9=
EXTT10=
EXTT11=
EXTT12=
EXTT13=
EXTT14=
PLAYORDER=
